<?xml version="1.0" encoding="utf-8"?>
<!-- Generator: Adobe Illustrator 16.0.4, SVG Export Plug-In . SVG Version: 6.00 Build 0)  -->
<!DOCTYPE svg PUBLIC "-//W3C//DTD SVG 1.1//EN" "http://www.w3.org/Graphics/SVG/1.1/DTD/svg11.dtd">
<svg version="1.1" xmlns="http://www.w3.org/2000/svg" xmlns:xlink="http://www.w3.org/1999/xlink" x="0px" y="0px" width="50px"
	 height="50px" viewBox="0 0 50 50" enable-background="new 0 0 50 50" xml:space="preserve">
<g id="Layer_1" display="none">
	<g display="inline">
		<g>
			<circle fill="#4D4D4D" cx="26.5" cy="25" r="25"/>
		</g>
	</g>
	<path display="inline" fill="#FFFFFF" d="M16.777,11.687l24.019,24.018c0.542,0.542,1.421,0.542,1.964,0s0.543-1.422,0-1.964
		l-25-25c-0.542-0.542-1.422-0.542-1.964,0l-5.556,5.556c-0.542,0.542-0.542,1.421,0,1.964l25,25c0.542,0.544,1.422,0.544,1.964,0
		c0.543-0.542,0.542-1.422,0-1.964L13.187,15.278L16.777,11.687z"/>
	<path display="inline" fill="#FFFFFF" d="M21.803,26.105l-8.616,8.615l3.591,3.592l24.019-24.018c0.542-0.542,1.421-0.542,1.964,0
		c0.544,0.542,0.544,1.422,0,1.964l-25,25c-0.542,0.543-1.422,0.543-1.964,0l-5.556-5.556c-0.542-0.542-0.542-1.421,0-1.964
		l9.865-9.865L21.803,26.105z"/>
	<path display="inline" fill="#FFFFFF" d="M25.664,18.316L35.24,8.74c0.542-0.542,1.422-0.542,1.964,0
		c0.543,0.542,0.542,1.421,0,1.964l-9.515,9.514L25.664,18.316z"/>
</g>
<g id="Layer_2">
	<g>
		<path fill="#4D4D4D" d="M15.821,23.103c0.858-4.282,4.636-7.508,9.172-7.51h17.076L36.251,5.516h-22.5l-4.054,7.02L15.821,23.103z
			"/>
		<path fill="#4D4D4D" d="M27.904,33.849c-0.914,0.298-1.891,0.464-2.906,0.464c-3.583,0-6.69-2.012-8.266-4.966L8.349,14.873
			L2.501,25l11.25,19.485h7.99L27.904,33.849z"/>
		<path fill="#4D4D4D" d="M43.421,17.934H31.174c1.946,1.716,3.182,4.221,3.182,7.019c0,1.412-0.322,2.746-0.88,3.941l0.001,0.002
			l-0.006,0.01c-0.235,0.511-0.516,0.994-0.839,1.446l-8.186,14.134h11.805L47.501,25L43.421,17.934z"/>
	</g>
</g>
</svg>
