g 
v -0.309016973 -0.9510566 8.3144009e-08
v -0.809016824 -0.587785423 5.13858325e-08
v -0.525731206 -0.723606944 -0.447213203
v -1 0 0
v -0.809016824 0.587785423 -5.13858325e-08
v -0.850650847 0.276393622 -0.447213203
v -0.309016973 0.9510566 -8.3144009e-08
v 0.309016973 0.9510566 -8.3144009e-08
v 0 0.894427359 -0.447213203
v 0.809016824 0.587785423 -5.13858325e-08
v 1 0 0
v 0.850650847 0.276393622 -0.447213203
v 0.809016824 -0.587785423 5.13858325e-08
v 0.309016973 -0.9510566 8.3144009e-08
v 0.525731206 -0.723606944 -0.447213203
v 0 -0.850651026 -0.52573061
v -0.809017241 -0.262865454 -0.525730789
v -0.49999997 0.688191354 -0.525730729
v 0.49999997 0.688191354 -0.525730729
v 0.809017241 -0.262865454 -0.525730789
v 0 -8.74227766e-08 -1
v 0.309017003 -0.425325483 -0.850650847
v -0.309017003 -0.425325483 -0.850650847
v 0.49999997 0.162460044 -0.850650787
v 0 0.525731087 -0.850650787
v -0.49999997 0.162460044 -0.850650787
vt 0.345491529 0 1
vt 0.0954915881 0.190982938 1
vt 0.237134397 0.119577348 0.552786767
vt 0 0.5 1
vt 0.0954915881 0.809017062 0.999999881
vt 0.0746745765 0.645308733 0.552786767
vt 0.345491529 1 0.999999881
vt 0.654508471 1 0.999999881
vt 0.5 0.970228255 0.552786767
vt 0.904508412 0.809017062 0.999999881
vt 1 0.5 1
vt 0.925325394 0.645308733 0.552786767
vt 0.904508412 0.190982938 1
vt 0.654508471 0 1
vt 0.762865603 0.119577348 0.552786767
vt 0.5 0.0527863204 0.47426936
vt 0.0954913795 0.361803472 0.474269181
vt 0.25 0.861803591 0.474269241
vt 0.75 0.861803591 0.474269241
vt 0.904508591 0.361803472 0.474269181
vt 0.5 0.49999997 0
vt 0.654508471 0.276393175 0.149349123
vt 0.345491499 0.276393175 0.149349123
vt 0.75 0.585410297 0.149349183
vt 0.5 0.776393175 0.149349183
vt 0.25 0.585410297 0.149349183
vn -0.294135749 -0.929526031 -0.22240822
vn -0.793138981 -0.566979051 -0.222408101
vn -0.525731146 -0.723606884 -0.447213322
vn -0.974924862 -0.00749956351 -0.222407967
vn -0.7843225 0.57911396 -0.222408041
vn -0.850650847 0.276393473 -0.447213322
vn -0.308400929 0.924891055 -0.222408265
vn 0.308400899 0.924891114 -0.22240828
vn -1.57931215e-08 0.894427299 -0.447213531
vn 0.784322441 0.57911396 -0.222408041
vn 0.974924862 -0.00749956351 -0.222407967
vn 0.850650907 0.276393473 -0.447213322
vn 0.793138981 -0.566979051 -0.222408086
vn 0.294135749 -0.929526031 -0.22240822
vn 0.525731146 -0.723606884 -0.447213382
vn -2.11272813e-08 -0.850650966 -0.525730848
vn -0.809017241 -0.262865484 -0.525730908
vn -0.49999997 0.688191116 -0.525730968
vn 0.49999997 0.688191175 -0.525730968
vn 0.809017241 -0.262865484 -0.525730908
vn 0 4.31507772e-08 -1
vn 0.309017062 -0.425325513 -0.850650728
vn -0.309017062 -0.425325513 -0.850650728
vn 0.50000006 0.162460059 -0.850650728
vn 2.1127283e-08 0.525731266 -0.850650668
vn -0.500000119 0.162460059 -0.850650728
g 
f 3/3/3 1/1/1 2/2/2
f 6/6/6 4/4/4 5/5/5
f 9/9/9 7/7/7 8/8/8
f 12/12/12 10/10/10 11/11/11
f 15/15/15 13/13/13 14/14/14
f 16/16/16 1/1/1 3/3/3
f 15/15/15 14/14/14 16/16/16
f 14/14/14 1/1/1 16/16/16
f 17/17/17 4/4/4 6/6/6
f 3/3/3 2/2/2 17/17/17
f 2/2/2 4/4/4 17/17/17
f 18/18/18 7/7/7 9/9/9
f 6/6/6 5/5/5 18/18/18
f 5/5/5 7/7/7 18/18/18
f 19/19/19 10/10/10 12/12/12
f 9/9/9 8/8/8 19/19/19
f 8/8/8 10/10/10 19/19/19
f 20/20/20 13/13/13 15/15/15
f 12/12/12 11/11/11 20/20/20
f 11/11/11 13/13/13 20/20/20
f 23/23/23 21/21/21 22/22/22
f 16/16/16 22/22/22 15/15/15
f 3/3/3 23/23/23 16/16/16
f 23/23/23 22/22/22 16/16/16
f 22/22/22 21/21/21 24/24/24
f 20/20/20 24/24/24 12/12/12
f 15/15/15 22/22/22 20/20/20
f 22/22/22 24/24/24 20/20/20
f 24/24/24 21/21/21 25/25/25
f 19/19/19 25/25/25 9/9/9
f 12/12/12 24/24/24 19/19/19
f 24/24/24 25/25/25 19/19/19
f 25/25/25 21/21/21 26/26/26
f 18/18/18 26/26/26 6/6/6
f 9/9/9 25/25/25 18/18/18
f 25/25/25 26/26/26 18/18/18
f 26/26/26 21/21/21 23/23/23
f 17/17/17 23/23/23 3/3/3
f 6/6/6 26/26/26 17/17/17
f 26/26/26 23/23/23 17/17/17
