<?xml version="1.0" encoding="utf-8"?>
<!-- Generator: Adobe Illustrator 16.0.4, SVG Export Plug-In . SVG Version: 6.00 Build 0)  -->
<!DOCTYPE svg PUBLIC "-//W3C//DTD SVG 1.1//EN" "http://www.w3.org/Graphics/SVG/1.1/DTD/svg11.dtd">
<svg version="1.1" xmlns="http://www.w3.org/2000/svg" xmlns:xlink="http://www.w3.org/1999/xlink" x="0px" y="0px" width="32px"
	 height="32px" viewBox="0 0 32 32" enable-background="new 0 0 32 32" xml:space="preserve">
<g id="Layer_2_1_" display="none">
	<rect display="inline" fill="#0082B3" width="32" height="32"/>
</g>
<g id="Layer_1">
	<g>
		<g opacity="0.9">
			<path fill="#FFFFFF" d="M16.889-46.234c0.307-0.293,0.354-0.786,0.354-1.055c0-1.1-0.566-2.6-1.781-2.6
				c-0.391,0-0.834,0.181-1.035,0.418c-0.227,0.266-0.383,0.74-0.383,1.158c0,1.027,0.627,2.424,1.971,2.424
				C16.341-45.888,16.652-46.01,16.889-46.234z M16.326-41.799c-0.102-0.014-0.182-0.021-0.289-0.021
				c-1.152,0-3.037,0.395-3.037,1.789c0,1.118,1.104,1.869,2.748,1.869c1.391,0,2.252-0.617,2.252-1.611
				C18-40.473,17.641-40.844,16.326-41.799z M24-53.988H8c-1.104,0-2,0.896-2,2v16c0,1.104,0.896,2,2,2h16c1.105,0,2-0.896,2-2v-16
				C26-53.092,25.105-53.988,24-53.988z M15.13-36.788c-2.693,0-4.146-1.2-4.146-2.858c0-1.842,2.188-3.123,5-3.242
				c-0.258-0.33-0.557-0.514-0.557-1.082c0-0.311,0.105-0.518,0.307-0.718c0,0-0.211,0.037-0.529,0.037
				c-1.941,0-3.205-1.361-3.205-3.204c0-1.645,1.6-3.133,4-3.133h4l-1,1h-0.736c0.426,0.415,0.92,1.075,0.92,2.133
				c0,1.355-0.703,1.998-1.473,2.602c-0.238,0.238-0.553,0.531-0.553,0.934s0.352,0.645,0.553,0.811l0.662,0.516
				c0.807,0.677,1.727,1.272,1.727,2.504C20.1-37.988,18.307-36.788,15.13-36.788z"/>
		</g>
		<g opacity="0.05">
			<path fill="#FFFFFF" d="M24-53.488c0.826,0,1.5,0.673,1.5,1.5v16c0,0.827-0.674,1.5-1.5,1.5H8c-0.827,0-1.5-0.673-1.5-1.5v-16
				c0-0.827,0.673-1.5,1.5-1.5H24 M14.938-44.159c-0.007,0.061-0.01,0.124-0.01,0.188c0,0.271,0.051,0.484,0.128,0.661
				c-2.733,0.361-4.572,1.797-4.572,3.664c0,2.04,1.824,3.358,4.646,3.358c4.759,0,5.47-2.631,5.47-4.2
				c0-1.331-0.869-2.04-1.636-2.666c-0.09-0.074-0.181-0.148-0.284-0.235l-0.65-0.507l-0.062-0.052
				c-0.168-0.135-0.308-0.257-0.308-0.373c0-0.169,0.184-0.358,0.385-0.559c0.834-0.656,1.643-1.432,1.643-2.977
				c0-0.62-0.144-1.175-0.433-1.678l0.103-0.101l1-1l0.854-0.854H20h-4c-2.523,0-4.5,1.596-4.5,3.633
				C11.5-45.764,12.899-44.278,14.938-44.159 M15.458-49.388c0.836,0,1.28,1.219,1.28,2.1c0,0.316-0.072,0.575-0.194,0.691
				c-0.142,0.135-0.332,0.209-0.533,0.209c-1.015,0-1.471-1.125-1.471-1.924c0-0.329,0.134-0.682,0.264-0.835
				C14.891-49.248,15.181-49.388,15.458-49.388 M16.037-41.32c0.037,0,0.07,0.001,0.102,0.004c1.188,0.869,1.361,1.118,1.361,1.543
				c0,1.031-1.341,1.111-1.752,1.111c-1.345,0-2.248-0.55-2.248-1.369C13.5-41.089,15.332-41.32,16.037-41.32 M24-53.988H8
				c-1.104,0-2,0.896-2,2v16c0,1.104,0.896,2,2,2h16c1.105,0,2-0.896,2-2v-16C26-53.092,25.105-53.988,24-53.988L24-53.988z
				 M15.205-44.651c-1.941,0-3.205-1.361-3.205-3.204c0-1.645,1.6-3.133,4-3.133h4l-1,1h-0.736c0.426,0.415,0.92,1.075,0.92,2.133
				c0,1.355-0.703,1.998-1.473,2.602c-0.238,0.238-0.553,0.531-0.553,0.934s0.352,0.645,0.553,0.811l0.662,0.516
				c0.807,0.677,1.727,1.272,1.727,2.504c0,2.5-1.793,3.7-4.969,3.7c-2.693,0-4.146-1.2-4.146-2.858c0-1.842,2.188-3.123,5-3.242
				c-0.258-0.33-0.557-0.514-0.557-1.082c0-0.311,0.105-0.518,0.307-0.718C15.733-44.688,15.522-44.651,15.205-44.651L15.205-44.651
				z M15.458-49.888c-0.391,0-0.834,0.181-1.035,0.418c-0.227,0.266-0.383,0.74-0.383,1.158c0,1.027,0.627,2.424,1.971,2.424
				c0.33,0,0.639-0.122,0.875-0.346c0.307-0.293,0.354-0.786,0.354-1.055C17.24-48.388,16.673-49.888,15.458-49.888L15.458-49.888z
				 M16.037-41.82c-1.152,0-3.037,0.395-3.037,1.789c0,1.118,1.104,1.869,2.748,1.869c1.391,0,2.252-0.617,2.252-1.611
				c0-0.7-0.359-1.071-1.674-2.025C16.225-41.812,16.145-41.82,16.037-41.82L16.037-41.82z"/>
		</g>
	</g>
	<g>
		<rect x="7.25" y="69.48" opacity="0.9" fill="#FFFFFF" enable-background="new    " width="17.5" height="6.05"/>
		
			<rect x="7.25" y="69.48" opacity="0.05" fill="none" stroke="#FFFFFF" stroke-width="0.5" enable-background="new    " width="17.5" height="6.05"/>
	</g>
	<g>
		<g>
			<rect x="7.25" y="76.448" opacity="0.9" fill="#FFFFFF" enable-background="new    " width="5.242" height="6.096"/>
			
				<rect x="7.25" y="76.448" opacity="0.05" fill="none" stroke="#FFFFFF" stroke-width="0.5" enable-background="new    " width="5.242" height="6.096"/>
		</g>
	</g>
	<g>
		<rect x="13.378" y="76.448" opacity="0.9" fill="#FFFFFF" enable-background="new    " width="5.242" height="6.096"/>
		
			<rect x="13.378" y="76.448" opacity="0.05" fill="none" stroke="#FFFFFF" stroke-width="0.5" enable-background="new    " width="5.242" height="6.096"/>
	</g>
	<g>
		<g>
			<rect x="19.509" y="76.448" opacity="0.9" fill="#FFFFFF" enable-background="new    " width="5.241" height="6.096"/>
			
				<rect x="19.509" y="76.448" opacity="0.05" fill="none" stroke="#FFFFFF" stroke-width="0.5" enable-background="new    " width="5.241" height="6.096"/>
		</g>
	</g>
	<g>
		<g opacity="0.9">
			<path fill="#FFFFFF" d="M16.365,134.023c-0.285-0.373-0.674-0.664-1.172-0.875c-0.496-0.209-1.131-0.315-1.908-0.315
				c-0.541,0-1.098,0.14-1.67,0.417c-0.57,0.278-1.039,0.723-1.406,1.332l-0.139,0.078v-6.432H7.25v15.568h2.82v-5.676
				c0-1.07,0.254-1.84,0.607-2.308c0.352-0.468,0.924-0.702,1.713-0.702c0.691,0,1.174,0.213,1.447,0.641
				c0.271,0.428,0.459,1.076,0.459,1.943v6.102h2.847v-6.631c0-0.651-0.062-1.244-0.175-1.78
				C16.854,134.851,16.652,134.396,16.365,134.023z M22.576,128.558c-0.088,0.579-0.27,1.066-0.547,1.457
				c-0.275,0.393-0.615,0.709-1.016,0.947c-0.398,0.24-0.853,0.407-1.354,0.501c-0.502,0.095-0.804,0.136-1.343,0.12v2.139h3.623
				v10.074h2.809v-15.238H22.576L22.576,128.558z"/>
		</g>
		<g opacity="0.05">
			<path fill="none" stroke="#FFFFFF" stroke-width="0.5" d="M16.365,134.023c-0.285-0.373-0.674-0.664-1.172-0.875
				c-0.496-0.209-1.131-0.315-1.908-0.315c-0.541,0-1.098,0.14-1.67,0.417c-0.57,0.278-1.039,0.723-1.406,1.332l-0.139,0.078v-6.432
				H7.25v15.568h2.82v-5.676c0-1.07,0.254-1.84,0.607-2.308c0.352-0.468,0.924-0.702,1.713-0.702c0.691,0,1.174,0.213,1.447,0.641
				c0.271,0.428,0.459,1.076,0.459,1.943v6.102h2.847v-6.631c0-0.651-0.062-1.244-0.175-1.78
				C16.854,134.851,16.652,134.396,16.365,134.023z M22.576,128.558c-0.088,0.579-0.27,1.066-0.547,1.457
				c-0.275,0.393-0.615,0.709-1.016,0.947c-0.398,0.24-0.853,0.407-1.354,0.501c-0.502,0.095-0.804,0.136-1.343,0.12v2.139h3.623
				v10.074h2.809v-15.238H22.576L22.576,128.558z"/>
		</g>
	</g>
	<g>
		<g opacity="0.9">
			<path fill="#FFFFFF" d="M7.233,204.762H22.38L7.233,189.64V204.762z M20.177,187.263c-2.534,0-4.59,2.051-4.59,4.58
				c0,2.53,2.056,4.582,4.59,4.582c2.532,0,4.589-2.052,4.589-4.582C24.766,189.313,22.709,187.263,20.177,187.263z"/>
		</g>
		<g opacity="0.05">
			<path fill="#FFFFFF" d="M20.177,187.763c2.255,0,4.089,1.83,4.089,4.08c0,2.251-1.834,4.082-4.089,4.082s-4.09-1.831-4.09-4.082
				C16.087,189.593,17.922,187.763,20.177,187.763 M7.733,190.845l13.438,13.417H7.733V190.845 M20.177,187.263
				c-2.534,0-4.59,2.051-4.59,4.58c0,2.53,2.056,4.582,4.59,4.582c2.532,0,4.589-2.052,4.589-4.582
				C24.766,189.313,22.709,187.263,20.177,187.263L20.177,187.263z M7.233,189.64v15.122H22.38L7.233,189.64L7.233,189.64z"/>
		</g>
	</g>
	<g>
		<g opacity="0.9">
			<path fill="#FFFFFF" d="M16.887,251.151c0-2.928-2.382-5.304-5.319-5.304s-5.318,2.376-5.318,5.304
				c0,2.932,2.381,5.306,5.318,5.306S16.887,254.08,16.887,251.151z M9.794,253.802v-4.419h4.432L9.794,253.802z M20.432,255.57
				c-2.937,0-5.316,2.376-5.316,5.306c0,2.93,2.383,5.304,5.316,5.304c2.938,0,5.318-2.374,5.318-5.304
				C25.75,257.946,23.369,255.57,20.432,255.57z M22.205,262.642h-4.432l4.432-4.42V262.642z"/>
		</g>
		<g opacity="0.05">
			<path fill="#FFFFFF" d="M11.567,246.347c2.657,0,4.818,2.155,4.818,4.804s-2.162,4.806-4.818,4.806
				c-2.656,0-4.818-2.155-4.818-4.806C6.75,248.502,8.912,246.347,11.567,246.347 M9.294,255.007l0.853-0.853l4.432-4.419
				l0.856-0.854h-1.209H9.794h-0.5v0.5v4.419V255.007 M20.432,256.07c2.656,0,4.818,2.155,4.818,4.806
				c0,2.647-2.162,4.804-4.818,4.804s-4.816-2.155-4.816-4.804C15.614,258.225,17.773,256.07,20.432,256.07 M16.564,263.142h1.209
				h4.432h0.5v-0.5v-4.42v-1.205l-0.854,0.853l-4.435,4.42L16.564,263.142 M11.567,245.847c-2.938,0-5.318,2.376-5.318,5.304
				c0,2.932,2.381,5.306,5.318,5.306s5.318-2.374,5.318-5.306C16.887,248.223,14.505,245.847,11.567,245.847L11.567,245.847z
				 M9.794,253.802v-4.419h4.432L9.794,253.802L9.794,253.802z M20.432,255.57c-2.937,0-5.316,2.376-5.316,5.306
				c0,2.93,2.383,5.304,5.316,5.304c2.938,0,5.318-2.374,5.318-5.304C25.75,257.946,23.369,255.57,20.432,255.57L20.432,255.57z
				 M17.773,262.642l4.432-4.42v4.42H17.773L17.773,262.642z"/>
		</g>
	</g>
	<g>
		<g opacity="0.9">
			<path fill="#FFFFFF" d="M20.23,309.28h-8.463l-5.078,4.208h18.62L20.23,309.28z M10.076,314.328l-3.387,3.363h18.62l-3.387-3.363
				H10.076z M10.076,318.535l-3.387,4.209h18.62l-3.387-4.209H10.076z"/>
		</g>
		<g opacity="0.05">
			<path fill="#FFFFFF" d="M20.049,309.78l3.873,3.208H8.077l3.871-3.208H20.049 M21.717,314.828l2.381,2.363H7.901l2.38-2.363
				H21.717 M21.686,319.035l2.58,3.209H7.733l2.582-3.209H21.686 M20.23,309.28h-8.463l-5.078,4.208h18.62L20.23,309.28
				L20.23,309.28z M21.924,314.328H10.076l-3.387,3.363h18.62L21.924,314.328L21.924,314.328z M21.924,318.535H10.076l-3.387,4.209
				h18.62L21.924,318.535L21.924,318.535z"/>
		</g>
	</g>
	
		<rect x="11.123" y="381.381" fill="#FFFFFF" fill-opacity="0.9" stroke="#FFFFFF" stroke-width="0.5" stroke-opacity="0.05" width="9.754" height="0.487"/>
	<path fill="#FFFFFF" fill-opacity="0.9" stroke="#FFFFFF" stroke-width="0.5" stroke-opacity="0.05" d="M20.877,365.762h-9.754
		c-1.078,0-1.951,0.875-1.951,1.952v0.488c0-1.077,0.873-1.952,1.951-1.952h9.754c1.076,0,1.951,0.875,1.951,1.952v-0.488
		C22.828,366.637,21.953,365.762,20.877,365.762z"/>
	<polygon fill="#FFFFFF" fill-opacity="0.9" stroke="#FFFFFF" stroke-width="0.5" stroke-opacity="0.05" points="16,384.31 
		15.268,383.577 15.024,383.821 16,384.798 16.975,383.821 16.732,383.577 	"/>
	
		<rect x="15.302" y="382.643" transform="matrix(0.7062 0.708 -0.708 0.7062 276.0939 101.2921)" fill="none" width="1.381" height="1.38"/>
	<rect x="11.123" y="367.714" fill="none" width="9.754" height="13.667"/>
	<g>
		<g opacity="0.9">
			<path fill="#FFFFFF" d="M20.877,365.762h-9.754c-1.078,0-1.951,0.875-1.951,1.952v16.596c0,1.079,0.873,1.952,1.951,1.952h9.754
				c1.076,0,1.951-0.873,1.951-1.952v-16.596C22.828,366.637,21.953,365.762,20.877,365.762z M16,384.31l-0.975-0.977L16,382.356
				l0.975,0.979L16,384.31z M20.877,381.381h-9.754v-13.667h9.754V381.381z"/>
		</g>
		<g opacity="0.05">
			<path fill="#FFFFFF" d="M20.877,366.262c0.799,0,1.451,0.651,1.451,1.452v16.596c0,0.801-0.652,1.452-1.451,1.452h-9.754
				c-0.8,0-1.451-0.651-1.451-1.452v-16.596c0-0.801,0.651-1.452,1.451-1.452H20.877 M10.623,381.881h0.5h4.645l-0.122,0.122
				l-0.975,0.977l-0.353,0.354l0.353,0.354l0.975,0.979L16,385.018l0.354-0.354l0.974-0.979l0.354-0.354l-0.354-0.354L16.354,382
				l-0.122-0.122h4.646h0.5v-0.5v-13.666v-0.5h-0.5h-9.754h-0.5v0.5v13.667L10.623,381.881 M20.877,365.762h-9.754
				c-1.078,0-1.951,0.875-1.951,1.952v16.596c0,1.079,0.873,1.952,1.951,1.952h9.754c1.076,0,1.951-0.873,1.951-1.952v-16.596
				C22.828,366.637,21.953,365.762,20.877,365.762L20.877,365.762z M11.123,381.381v-13.667h9.754v13.667H11.123L11.123,381.381z
				 M16,384.31l-0.975-0.977L16,382.356l0.975,0.979L16,384.31L16,384.31z"/>
		</g>
	</g>
	<g>
		<g opacity="0.9">
			<path fill="#FFFFFF" d="M6.25,428.601v14.822h19.5v-14.822H6.25L6.25,428.601z M19.25,441.569l-4.643-4.631h2.786v-3.706h3.715
				v3.706h2.785L19.25,441.569z"/>
		</g>
		<g opacity="0.05">
			<path fill="#FFFFFF" d="M25.25,429.101v13.822H6.75v-13.822H25.25 M16.893,436.438h-2.286h-1.209l0.856,0.854l4.643,4.631
				l0.354,0.352l0.354-0.352l4.644-4.631l0.854-0.854h-1.209h-2.285v-3.206v-0.5h-0.5h-3.715h-0.5v0.5V436.438 M25.75,428.601H6.25
				v14.822h19.5V428.601L25.75,428.601z M19.25,441.569l-4.643-4.631h2.786v-3.706h3.715v3.706h2.785L19.25,441.569L19.25,441.569z"
				/>
		</g>
	</g>
	<path fill="#FFFFFF" fill-opacity="0.9" stroke="#FFFFFF" stroke-width="0.5" stroke-opacity="0.05" d="M19.25,441.569
		l-4.178-4.168h-0.465l4.643,4.632l4.643-4.632H23.43L19.25,441.569z M6.25,428.601v0.463h19.5v-0.463H6.25z"/>
	<g>
		<g opacity="0.9">
			<path fill="#FFFFFF" d="M16.001,486.035c-5.522,0-10.001,4.467-10.001,9.977s4.479,9.977,10.002,9.977
				c5.52,0,9.999-4.467,9.999-9.977S21.521,486.035,16.001,486.035z M10.196,488.959l3.217,3.211l-1.285,1.285l-3.219-3.211
				L10.196,488.959z M10.196,503.086l-1.285-1.285l3.217-3.209l1.285,1.283L10.196,503.086z M15.99,499.654
				c-2.012,0-3.643-1.625-3.643-3.631s1.631-3.633,3.643-3.633c2.008,0,3.639,1.627,3.639,3.633S17.998,499.654,15.99,499.654z
				 M21.781,503.086l-3.219-3.211l1.287-1.285l3.219,3.211L21.781,503.086z M19.852,493.455l-1.289-1.285l3.221-3.211l1.285,1.285
				L19.852,493.455z"/>
		</g>
		<g opacity="0.05">
			<path fill="#FFFFFF" d="M16.001,486.535c2.108,0,4.062,0.688,5.642,1.854l-0.216,0.214l-3.219,3.211l-0.354,0.354l0.354,0.354
				l0.034,0.034c-0.646-0.422-1.426-0.668-2.254-0.668c-0.833,0-1.61,0.247-2.261,0.671l0.039-0.038l0.354-0.354l-0.354-0.354
				l-3.217-3.211l-0.204-0.204C11.926,487.229,13.884,486.535,16.001,486.535 M23.639,490.382c1.17,1.575,1.861,3.521,1.861,5.63
				c0,2.112-0.695,4.064-1.871,5.642l-0.207-0.206l-3.219-3.211l-0.354-0.353l-0.354,0.353l-0.035,0.034
				c0.423-0.646,0.668-1.419,0.668-2.247c0-0.832-0.247-1.604-0.673-2.257l0.043,0.043l0.354,0.354l0.354-0.354l3.216-3.211
				L23.639,490.382 M8.353,490.395l0.204,0.203l3.219,3.211l0.354,0.354l0.353-0.354l0.033-0.032
				c-0.422,0.646-0.667,1.419-0.667,2.247c0,0.829,0.246,1.604,0.669,2.249l-0.035-0.034l-0.354-0.353l-0.353,0.353l-3.217,3.209
				l-0.196,0.194c-1.171-1.575-1.863-3.521-1.863-5.63C6.5,493.911,7.188,491.968,8.353,490.395 M13.729,499.483
				c0.65,0.425,1.427,0.671,2.26,0.671c0.83,0,1.604-0.242,2.253-0.667l-0.034,0.034l-0.354,0.354l0.354,0.354l3.219,3.211
				l0.201,0.202c-1.575,1.16-3.522,1.85-5.627,1.85c-2.111,0-4.064-0.69-5.644-1.856l0.192-0.192l3.217-3.211l0.354-0.354
				l-0.354-0.354L13.729,499.483 M16.001,486.035c-5.522,0-10.001,4.467-10.001,9.977s4.479,9.977,10.002,9.977
				c5.52,0,9.999-4.467,9.999-9.977S21.521,486.035,16.001,486.035L16.001,486.035z M19.852,493.455l-1.289-1.285l3.221-3.211
				l1.285,1.285L19.852,493.455L19.852,493.455z M12.128,493.455l-3.219-3.211l1.287-1.285l3.217,3.211L12.128,493.455
				L12.128,493.455z M15.99,499.654c-2.012,0-3.643-1.625-3.643-3.631s1.631-3.633,3.643-3.633c2.008,0,3.639,1.627,3.639,3.633
				S17.998,499.654,15.99,499.654L15.99,499.654z M21.781,503.086l-3.219-3.211l1.287-1.285l3.219,3.211L21.781,503.086
				L21.781,503.086z M10.196,503.086l-1.285-1.285l3.217-3.209l1.285,1.283L10.196,503.086L10.196,503.086z"/>
		</g>
	</g>
	<path fill="#FFFFFF" fill-opacity="0.9" stroke="#FFFFFF" stroke-width="0.5" stroke-opacity="0.05" d="M19.852,493.455
		l-1.062-1.062l-0.229,0.229l1.289,1.283l3.217-3.212l-0.229-0.227L19.852,493.455z M16.001,486.035
		c-5.522,0-10.001,4.467-10.001,9.977c0,0.076,0.01,0.15,0.012,0.227c0.123-5.401,4.545-9.75,9.99-9.75
		c5.443,0,9.864,4.349,9.986,9.75c0.002-0.076,0.012-0.15,0.012-0.227C26,490.502,21.521,486.035,16.001,486.035z M21.781,503.086
		l-2.991-2.984l-0.229,0.229l3.219,3.209l1.287-1.283l-0.229-0.229L21.781,503.086z M13.414,492.623l-0.227-0.229l-1.059,1.062
		l-2.99-2.984l-0.229,0.227l3.219,3.214L13.414,492.623z M10.196,503.086l-1.059-1.06l-0.227,0.229l1.285,1.283l3.217-3.209
		l-0.227-0.229L10.196,503.086z M19.628,496.477c0-0.078-0.019-0.147-0.021-0.227c-0.121,1.896-1.687,3.401-3.615,3.401
		c-1.934,0-3.498-1.506-3.617-3.401c-0.006,0.076-0.025,0.146-0.025,0.227c0,2.006,1.631,3.633,3.643,3.633
		C17.998,500.109,19.628,498.482,19.628,496.477z"/>
	<g id="Layer_2" opacity="0.9">
		<g>
			<path fill="#FFFFFF" d="M11.763,15.136c0.396-1.977,2.14-3.465,4.233-3.466h7.881l-2.686-4.65H10.809l-1.871,3.239L11.763,15.136
				z"/>
			<path fill="#FFFFFF" d="M17.34,20.096c-0.422,0.137-0.873,0.213-1.342,0.213c-1.653,0-3.088-0.928-3.814-2.291l-3.869-6.681
				l-2.699,4.674l5.192,8.992h3.688L17.34,20.096z"/>
			<path fill="#FFFFFF" d="M24.5,12.75h-5.65c0.896,0.792,1.467,1.948,1.467,3.239c0,0.652-0.146,1.268-0.404,1.819v0.001
				l-0.002,0.004c-0.107,0.236-0.237,0.459-0.389,0.667l-3.777,6.523h5.449l5.189-8.993L24.5,12.75z"/>
		</g>
	</g>
</g>
</svg>
